<?xml version="1.0" encoding="UTF-8" standalone="no"?>
<!DOCTYPE svg PUBLIC "-//W3C//DTD SVG 1.1//EN" "http://www.w3.org/Graphics/SVG/1.1/DTD/svg11.dtd">
<svg version="1.1" xmlns="http://www.w3.org/2000/svg" xmlns:xlink="http://www.w3.org/1999/xlink" preserveAspectRatio="xMidYMid meet" viewBox="0 0 640 640" width="640" height="640"><defs><path d="M148.71 23.84L618.59 149.75L492.68 619.63L22.81 493.72L148.71 23.84Z" id="akObJA6h2"></path><mask id="masknzopDcZoY" x="6.81" y="7.84" width="627.78" height="627.78" maskUnits="userSpaceOnUse"><rect x="6.81" y="7.84" width="627.78" height="627.78" fill="white"></rect><use xlink:href="#akObJA6h2" opacity="1" fill="black"></use></mask><path d="M21.41 150.12L491.29 24.22L617.19 494.1L147.32 620L21.41 150.12Z" id="l14m4Qcs8g"></path><mask id="maskb9eKC37HdZ" x="5.41" y="8.22" width="627.78" height="627.78" maskUnits="userSpaceOnUse"><rect x="5.41" y="8.22" width="627.78" height="627.78" fill="white"></rect><use xlink:href="#l14m4Qcs8g" opacity="1" fill="black"></use></mask><path d="M21.41 151.13L491.29 25.23L617.19 495.11L147.32 621.01L21.41 151.13Z" id="a4RuHoQftq"></path><clipPath id="clipbzilx7YF7"><use xlink:href="#a4RuHoQftq" opacity="1"></use></clipPath><path d="M148.71 23.84L618.59 149.75L492.68 619.63L22.81 493.72L148.71 23.84Z" id="b1DCqnk6f"></path><clipPath id="clipa48CpMcE7"><use xlink:href="#b1DCqnk6f" opacity="1"></use></clipPath><path d="M474.37 245.69C479.02 263.06 481.93 273.91 483.09 278.25C493.15 315.8 485.14 355.89 461.43 386.69C451.61 399.45 427.05 431.35 387.75 482.39L388.76 359.46L474.37 245.69Z" id="a1Zo1t1szD"></path><path d="M360.24 166.83C408.16 153.99 457.42 182.43 470.26 230.35C478.22 260.07 478.86 262.46 486.82 292.18C499.66 340.1 471.23 389.36 423.31 402.2C375.67 414.96 319.53 430.01 271.9 442.77C223.98 455.61 174.72 427.17 161.88 379.25C153.92 349.53 153.28 347.14 145.31 317.42C132.47 269.5 160.91 220.24 208.83 207.4C256.46 194.64 312.6 179.6 360.24 166.83Z" id="a6KGr9epx3"></path></defs><g><g><g><g><use xlink:href="#akObJA6h2" opacity="1" fill="#000000" fill-opacity="0"></use><g mask="url(#masknzopDcZoY)"><use xlink:href="#akObJA6h2" opacity="1" fill-opacity="0" stroke="#ffffff" stroke-width="16" stroke-opacity="1"></use></g></g><g><use xlink:href="#l14m4Qcs8g" opacity="1" fill="#000000" fill-opacity="0"></use><g mask="url(#maskb9eKC37HdZ)"><use xlink:href="#l14m4Qcs8g" opacity="1" fill-opacity="0" stroke="#ffffff" stroke-width="16" stroke-opacity="1"></use></g></g></g><g><use xlink:href="#a4RuHoQftq" opacity="1" fill="#555555" fill-opacity="1"></use><g clip-path="url(#clipbzilx7YF7)"><use xlink:href="#a4RuHoQftq" opacity="1" fill-opacity="0" stroke="#503b3b" stroke-width="0" stroke-opacity="1"></use></g></g><g><use xlink:href="#b1DCqnk6f" opacity="1" fill="#222222" fill-opacity="1"></use><g clip-path="url(#clipa48CpMcE7)"><use xlink:href="#b1DCqnk6f" opacity="1" fill-opacity="0" stroke="#014f98" stroke-width="0" stroke-opacity="1"></use></g></g><g><use xlink:href="#a1Zo1t1szD" opacity="1" fill="#f1f1f1" fill-opacity="1"></use><g><use xlink:href="#a1Zo1t1szD" opacity="1" fill-opacity="0" stroke="#000000" stroke-width="0" stroke-opacity="1"></use></g></g><g><use xlink:href="#a6KGr9epx3" opacity="1" fill="#f1f1f1" fill-opacity="1"></use></g></g></g></svg>